<svg xmlns="http://www.w3.org/2000/svg" width="256" height="256"><path fill="#1976D2" fill-opacity=".016" fill-rule="evenodd" d="M0 128.004v128.004l128.25-.254 128.25-.254.254-127.75L257.008 0H0zm.485.496c0 70.4.119 99.053.265 63.672s.146-92.98 0-128S.485 58.1.485 128.5"/><path fill="#1976D2" fill-opacity=".123" fill-rule="evenodd" d="M117.594 13.152c.513.83-.45.997-3.441.595-2.435-.326-4.153-.15-4.153.428 0 .582-1.277.703-3.125.298-2.371-.521-2.938-.384-2.351.566.579.937.106 1.085-1.875.588-1.648-.414-2.649-.255-2.649.421 0 .632-.838.821-2 .452-1.225-.389-2-.18-2 .54 0 .646-.675.915-1.5.598-.825-.316-1.5-.091-1.5.5 0 .592-.675.817-1.5.5s-1.5-.102-1.5.477c0 .578-.558.866-1.241.638s-1.866.211-2.629.974-2.005 1.151-2.759.862S82 21.525 82 22.09c0 .566-.45.75-1 .41s-1-.115-1 .5-.45.84-1 .5-1-.172-1 .374c0 .994-3.843 2.696-5.25 2.324-.412-.109-.75.279-.75.861s-.45.781-1 .441-1-.223-1 .261c0 .483-3.769 3.439-8.376 6.568-10.426 7.082-21.977 19.062-29.37 30.46-3.107 4.791-6.013 8.862-6.458 9.046-.445.185-.554.747-.243 1.25S25.615 76 25 76s-.84.45-.5 1 .115 1-.5 1-.84.45-.5 1 .237 1-.228 1c-.466 0-.92.972-1.009 2.16-.09 1.188-.523 2.426-.963 2.75-.44.325-.957 1.49-1.15 2.59s-.642 2.225-1 2.5c-.357.275-.794 1.85-.97 3.5s-.691 3.134-1.144 3.298-.576 1.247-.272 2.406c.385 1.474.19 1.886-.647 1.369-.866-.536-1.018-.025-.549 1.843.399 1.588.231 2.584-.435 2.584-.682 0-.849 1.168-.452 3.155.448 2.239.299 2.95-.513 2.449-.829-.513-.966.588-.499 4.001.472 3.442.335 4.515-.512 3.992-.848-.524-1.157 2.102-1.157 9.844 0 6.678.384 10.559 1.045 10.559.647 0 .803 1.292.411 3.385-.356 1.898-.198 3.656.36 4.001.548.339.793 1.403.544 2.365-.711 2.755 4.347 18.869 9.025 28.749 11.836 24.998 29.026 42.789 52.808 54.656 17.016 8.491 31.799 11.833 52.373 11.84 13.426.004 19.777-.895 32.755-4.64 41.094-11.859 72.175-46.402 80.852-89.856 2.808-14.066 2.145-35.737-1.524-49.794-10.574-40.514-40.94-71.836-80.746-83.288-4.955-1.425-9.646-2.347-10.424-2.048s-1.706.072-2.061-.503c-.378-.611-2.056-.782-4.033-.411-2.093.392-3.385.236-3.385-.411 0-.666-4.186-1.045-11.559-1.045-8.469 0-11.369.308-10.847 1.152m67.148 1.933c-.967.563-2.204.747-2.75.41s-.988-.249-.984.196c.011 1.123 5.08 3.373 6.132 2.722.473-.292.86.087.86.843 0 .755 1.599 2.136 3.553 3.068 1.955.932 3.302 2.101 2.996 2.597-.307.497.222.789 1.176.649s3.369 1.446 5.367 3.526c2.67 2.779 3.927 3.485 4.747 2.665s1.002-.531.69 1.089c-.234 1.212-.048 1.971.412 1.686.46-.284 2.034 1.054 3.499 2.974 1.464 1.919 3.389 3.49 4.278 3.49s1.326.289.973.642 1.538 3.166 4.203 6.25c13.43 15.545 23.158 35.756 27.226 56.566 2.016 10.31 2.792 33.085 1.399 41.042-3.238 18.492-10.289 36.471-19.949 50.871-5.688 8.479-19.417 24.302-20.731 23.893-.417-.131-1.964 1.344-3.438 3.277-1.474 1.932-2.91 3.283-3.192 3.002-.281-.282-1.152.269-1.934 1.223-.783.953-1.095 1.102-.695.329.479-.923.334-1.16-.425-.69-.635.392-1.155 1.331-1.155 2.087 0 1.32-3.619 3.143-5.324 2.681-.454-.122-.54.239-.191.802.348.564.209 1.025-.309 1.025-.519 0-1.176.891-1.461 1.981-.415 1.588-.056 1.942 1.812 1.787 1.281-.106 2.11-.547 1.842-.98-.47-.76 1.15-1.211 3.05-.85.506.096.338-.526-.372-1.382-1.451-1.748-.046-2.155 1.636-.473.777.777 2.286-.14 5.344-3.25 2.343-2.383 3.937-3.658 3.543-2.833-.395.825.254.26 1.443-1.255s2.524-2.531 2.967-2.257c1.292.798 17.574-16.918 23.172-25.213 9.447-14 15.988-29.302 19.343-45.253.828-3.934 1.505-8.473 1.505-10.087s.45-2.935 1-2.935c.619 0 1-5.353 1-14.059 0-7.732-.389-13.818-.865-13.524s-1.143-1.817-1.482-4.691c-2.169-18.395-14.111-46.3-24.743-57.822-1.975-2.14-3.461-4.02-3.302-4.178s-3.812-4.324-8.824-9.257c-5.011-4.933-8.778-8.294-8.371-7.469.406.825-.139.507-1.213-.707-1.073-1.215-2.127-2.033-2.341-1.819s-1.507-.519-2.874-1.629-1.853-1.685-1.08-1.277c.904.477 1.159.345.717-.37-.377-.611-1.301-.875-2.053-.586-.752.288-1.707-.026-2.122-.698-.515-.834-.339-.965.553-.414q1.31.809.585-.362c-.398-.644-1.108-.933-1.577-.643-.47.291-2.549-.472-4.62-1.694-2.464-1.453-3.472-1.717-2.916-.761.468.803-.333.382-1.78-.935s-2.393-2.78-2.102-3.25c.67-1.084.336-1.043-1.848.23M60.568 21.02c-1.613 1.03-3.253 1.675-3.645 1.432-.393-.242-.982.26-1.311 1.117-.334.871-1.11 1.241-1.759.84-.659-.407-.894-.285-.543.283.34.551 1.989 1.041 3.663 1.088 2.431.069 3.365-.533 4.637-2.992 1.23-2.378 1.793-2.762 2.476-1.684.707 1.117.886 1.047.899-.354.019-2.158-.685-2.115-4.417.27m-8.97 5.715c-.42.421-1.126.765-1.569.765-.442 0-1.642.921-2.666 2.047s-1.451 1.351-.947.5c.503-.851-.937.253-3.201 2.453s-4.139 4.563-4.166 5.25S38.37 39 37.6 39c-.769 0-3.636 2.447-6.37 5.439C18.171 58.728 7.378 79.849 2.986 99.712c-2.788 12.611-2.788 43.965 0 56.576 5.066 22.91 17.682 45.293 35.066 62.212 4.521 4.4 7.902 7.325 7.512 6.5s.447-.15 1.859 1.5 2.569 2.609 2.572 2.131c.003-.477 1.549.309 3.437 1.749s4.654 3.082 6.149 3.651c2.386.907 2.562.846 1.445-.499-.699-.843-.903-1.532-.454-1.532s-.733-1.156-2.628-2.569c-1.894-1.413-3.356-2.913-3.25-3.333.107-.421-.455-.765-1.25-.765s-1.444.402-1.444.893c0 .49-.498.584-1.107.208-.771-.477-.695-.939.25-1.526 1.073-.666.858-1.319-1.031-3.125-1.313-1.256-2.053-1.687-1.645-.958.409.728-2.117-1.522-5.612-5-3.495-3.479-6.253-6.502-6.128-6.719s-1.085-1.889-2.69-3.716c-12.051-13.725-22.534-37.053-26.173-58.242-1.508-8.783-1.458-28.65.098-38.648 2.547-16.363 9.548-33.898 19.563-49 5.804-8.752 20.202-25.164 21.691-24.725.513.151.668-.153.345-.676s1.209-2.221 3.405-3.775 4.001-3.217 4.013-3.696-.688-.284-1.555.435c-1.212 1.006-1.748 1.031-2.319.108-.408-.661-1.086-.857-1.507-.436m60.284 21.576c-5.423 2.042-9.981 5.119-13.882 9.373L94.5 61.5l3.9-3.5c2.393-2.147 3.661-2.824 3.282-1.75-.482 1.361-.071 1.75 1.849 1.75 1.64 0 2.469.561 2.469 1.671 0 .919.776 2.607 1.723 3.75.948 1.144 1.083 1.517.3.829S106.172 63 105.65 63s1.014 1.423 3.414 3.162c3.909 2.831 4.16 3.244 2.401 3.956-1.209.488-.425.589 2.035.262 6.077-.807 42.171 4.244 45.903 6.423 6.917 4.04 10.211 13.812 9.346 27.722-.393 6.315-1.201 9.511-3.791 15-3.52 7.46-4.132 13.143-1.614 14.985.901.658 1.689 3.152 1.913 6.055.268 3.454.437 2.476.563-3.258.158-7.21.446-8.38 2.391-9.743 2.124-1.487 2.228-2.305 2.622-20.601.451-21-.448-28.315-4.485-36.463-3.143-6.343-10.517-13.983-16.419-17.009-10.133-5.195-30.604-7.982-38.047-5.18m-8.691 1.04c-1.819.659-3.03 1.477-2.69 1.817.602.601 6.499-1.887 6.499-2.741 0-.235-.112-.393-.25-.351s-1.739.616-3.559 1.275m83.309 20.07c-4.075 1.825-9.05 7.243-11.048 12.033-1.478 3.543-1.484 3.817-.061 2.636 1.358-1.127 1.709-.994 2.414.912.697 1.883 1.018 1.366 2.068-3.324.863-3.858 2.195-6.485 4.362-8.604 2.919-2.853 4.692-3.491 12.265-4.41 1.701-.207.835-.412-2-.475-2.75-.061-6.35.494-8 1.232m11.528.692c-2.574 1.028-3.987 2.608-4.013 4.49-.021 1.568 14.154 10.866 16.108 10.565.892-.138 1.843.595 2.113 1.628.467 1.785.215 1.813-5.122.557-6.339-1.493-8.786-1.691-7.722-.628.399.399 3.286 1.258 6.417 1.91s6.426 1.478 7.323 1.837c1.428.57 1.531.11.824-3.66-1.65-8.799-4.556-13.493-10.156-16.407-1.486-.773-2.836-1.376-3-1.342-.165.035-1.412.508-2.772 1.05M70.45 89.73c.302.789.55 1.559.55 1.713s1.144.061 2.542-.206c3.286-.628 2.609-2.706-.924-2.839-1.973-.073-2.567.292-2.168 1.332m9.164-.293c.303.79 1.187 1.193 1.963.895 1.689-.648.891-2.332-1.105-2.332-.814 0-1.176.607-.858 1.437m124.762 23.362c.722 1.169 9.489 3.669 10.238 2.92.822-.822-2.572-2.358-6.962-3.151-2.291-.414-3.617-.321-3.276.231M176 186.067c0 3.555.242 3.991 1.919 3.459 1.321-.42 2.087-.051 2.461 1.182.298.986.294-.008-.008-2.208-.981-7.126-4.372-9.013-4.372-2.433M62.922 233.122c.507.617.714 1.662.461 2.322s.795 1.737 2.328 2.394c2.624 1.124 2.671 1.102.789-.365-1.1-.857-2-1.967-2-2.466s-.562-1.38-1.25-1.957c-.899-.755-.991-.735-.328.072"/><path fill="#1976D2" fill-opacity=".682" fill-rule="evenodd" d="M86.5 54.887c-9.553 5.481-17.264 15.757-19.032 25.363-.456 2.476-1.247 3.775-2.329 3.823-3.52.157-7.725 3.675-10.114 8.462-1.968 3.943-2.478 6.496-2.486 12.462-.014 9.173 1.821 13.07 7.927 16.833 2.985 1.84 5.108 4.225 6.827 7.67 6.02 12.064 12.098 17.124 25.905 21.564l6.884 2.213-.291 7.112-.291 7.111-15.5.61c-8.525.336-16.85.957-18.5 1.381-4.352 1.119-7.431 4.349-8.61 9.033-.85 3.374-1.598 4.269-4.212 5.039-2.28.672-3.972.555-5.99-.417-1.861-.896-4.313-1.129-7.25-.689l-4.438.666v14.763l5.353 6.31c13.207 15.567 34.646 29.332 54.816 35.193l8.331 2.421 6.293-6.864c4.384-4.781 8.177-7.786 12.5-9.905 14.999-7.351 32.409-3.99 41.149 7.943 3.383 4.619 4.156 4.772 9.732 1.927l4.095-2.089-.654-18.161c-.359-9.989-.932-22.157-1.273-27.041-.69-9.881.348-11.018 4.143-4.54 3.045 5.196 3.489 29.15.755 40.67-1.37 5.774-1.611 8.25-.803 8.25 3.979 0 22.995-14.365 25.815-19.5 3.118-5.678 2.509-15.475-1.287-20.71-1.081-1.49-1.965-4.271-1.965-6.18 0-2.838.41-3.529 2.25-3.79 2.015-.287 2.281-.96 2.545-6.454.277-5.766.457-6.167 3-6.691 1.488-.307 4.237-1.849 6.11-3.428 4.06-3.421 4.909-7.639 5.022-24.932l.073-11.186-3.5-1.265c-2.778-1.005-3.5-1.802-3.5-3.865 0-1.429.563-3.169 1.25-3.866 1.912-1.939-1.201-3.713-9.049-5.161-3.686-.679-7.153-1.589-7.705-2.022s-2.577-.976-4.5-1.208c-2.512-.303-1.915-.467 2.118-.582 3.087-.088 7.997.292 10.911.845s5.528.775 5.808.495c1.02-1.019.822-12.039-.241-13.442-.858-1.133-.788-1.259.328-.586 1.065.642 1.26.44.781-.808-.417-1.087-.129-1.664.83-1.664 1.822 0 1.922-2.38.162-3.84-1.764-1.464-12.342-4.16-16.32-4.16-1.763 0-3.382-.526-3.596-1.169-.484-1.451-8.577-1.247-14.211.357-6.963 1.982-7.184 2.441-7.357 15.317-.085 6.338-.658 12.466-1.274 13.617-.81 1.513-.818 2.395-.028 3.185.601.601 1.093 2.578 1.093 4.393 0 2.593-.413 3.3-1.929 3.3-4.247 0-5.072 2.423-5.047 14.821.013 6.424.427 13.417.92 15.541 1.07 4.612 5.19 9.195 9.747 10.843 2.714.982 3.329 1.745 3.419 4.246.06 1.677.237 4.608.393 6.514.252 3.068.135 3.26-1.022 1.678-1.789-2.447-8.347-4.246-18.542-5.086-12.466-1.027-13.578-2.613-1.439-2.053l10 .461-6-1.41c-3.3-.775-10.838-1.95-16.75-2.611L136 168.741v-13.646l6.25-.355c3.623-.205 1.206-.444-5.75-.567-12.677-.225-23.745-1.475-29.416-3.324-4.413-1.439-11.7-8.177-14.251-13.177-2.963-5.807-4.156-21.01-3.547-45.172.446-17.708.842-21.823 2.525-26.25 2.187-5.751 2.088-6.789-.239-2.5-1.042 1.92-1.504 2.229-1.532 1.025-.034-1.449-.463-1.565-2.679-.722-1.451.552-2.842.799-3.091.55-.966-.966 1.092-4.998 4.449-8.714 1.932-2.139 3.349-3.885 3.147-3.88-.201.006-2.616 1.301-5.366 2.878m21.471 18.149c-4.941 2.946-7.867 7.686-8.994 14.568-2.199 13.429-.43 23.17 5.457 30.048 4.632 5.412 10.793 7.883 24.371 9.777 19.517 2.722 24.815 1.999 31.564-4.312 6-5.609 7.584-10.009 7.603-21.117.025-14.015-2.574-21.192-8.849-24.436-2.645-1.368-29.57-5.392-41.623-6.22-4.812-.331-6.698.004-9.529 1.692M71.348 86.194c-2.055.978-2.088 1.213-.73 5.199 1.116 3.274 1.957 4.218 3.902 4.379 2.191.182 2.48-.188 2.48-3.172 0-4.636-2.772-7.777-5.652-6.406m7.052 1.262C79.704 92.654 81.012 95 82.606 95c1.342 0 1.545-.681 1.073-3.589-.665-4.1-2.255-6.411-4.41-6.411-1.078 0-1.317.673-.869 2.456m-10.686 5.56C68.277 95.169 70 96.771 70 95.141 70 93.435 68.816 91 67.987 91c-.44 0-.563.907-.273 2.016m182.731 19.895c.62 1.004 3.101.876 4.193-.215.382-.383-.531-.696-2.03-.696s-2.473.41-2.163.911M251.5 116c.34.55.816 1 1.059 1s.441-.45.441-1-.477-1-1.059-1-.781.45-.441 1m-.046 7.167c-.021 1.558.366 2.833.861 2.833.494 0 .645-.661.336-1.468-.31-.807-.133-1.734.393-2.059 1.363-.843 1.182-2.14-.298-2.14-.702 0-1.271 1.248-1.292 2.834m-43.185 2.526c.973.254 2.323.237 3-.037s-.119-.481-1.769-.461-2.204.244-1.231.498m41.19 33.374c-.363.586-.445 1.281-.183 1.543s.743-.218 1.069-1.067c.676-1.762.1-2.072-.886-.476M181 182.289c0 .158.9 2.053 2 4.211l2 3.923v-4.212c0-3.544-.317-4.211-2-4.211-1.1 0-2 .13-2 .289m-107.768 5.063c1.193 2.281 2.9 7.748 3.794 12.148l1.624 8 .749-5.762c1.062-8.181-2.035-16.886-6.414-18.032-1.838-.48-1.827-.321.247 3.646M199 190.5c0 2.475.45 4.5 1 4.5s1-2.025 1-4.5-.45-4.5-1-4.5-1 2.025-1 4.5m-155.403.231c-3.098.46-6.27 2.929-5.173 4.026.714.715 7.38.505 11.819-.371 2.347-.464 2.595-.82 1.715-2.464-1.012-1.892-2.355-2.083-8.361-1.191"/><path fill="#1976D2" fill-opacity=".2" fill-rule="evenodd" d="M84 57.092c-7.695 5.18-13.286 13.005-15.791 22.102-1.003 3.643-.975 3.698 2.038 4 4.616.462 7.074 4.483 7.578 12.395l.418 6.567-2.872-.328c-2.156-.246-2.956-.929-3.212-2.74-.237-1.678-.583-2.02-1.138-1.122-1.261 2.04-2.682.439-3.898-4.392-.639-2.538-2.082-5.132-3.346-6.017C61.762 86.145 61.731 86 63.449 86c1.041 0 2.716.745 3.722 1.655S69 88.86 69 88.31s-.859-1.777-1.909-2.728c-1.72-1.556-2.192-1.581-4.752-.257-3.895 2.014-6.279 4.842-7.89 9.359-1.784 5.001-1.813 15.508-.055 19.716 1.336 3.198 7.186 8.6 9.313 8.6.56 0 2.403 2.813 4.096 6.25 5.908 12.002 13.99 18.419 27.447 21.796l4.75 1.191v8.323c0 4.577-.445 8.597-.989 8.933-2.152 1.33-23.257 2.394-28.449 1.434-8.812-1.629-12.032.862-13.885 10.742-.577 3.076-.471 3.19 3.614 3.866 5.586.925 7.617 2.093 8.729 5.017 1.196 3.146.465 4.906-2.622 6.313-3.745 1.706-4.09 1.509-5.967-3.406-2.221-5.816-5.468-8.906-9.63-9.164-1.816-.112-4.987-.499-7.048-.859-4.52-.789-8.753.125-8.753 1.889 0 .932 1.925 1.272 6.972 1.231 8.271-.066 10.855 1.739 11.721 8.19l.541 4.039-3.867.579c-10.489 1.57-10.391 1.6-12.414-3.727-2.447-6.449-2.953-6.764-2.953-1.842 0 3.838.64 4.798 9.069 13.616 4.988 5.217 11.539 11.197 14.558 13.288 5.956 4.124 15.474 9.534 15.945 9.062.983-.983 2.529-23.164 1.965-28.196-1.215-10.837-4.85-16.515-12.221-19.086l-3.816-1.332 3.632-1.537c6.177-2.616 12.203.192 15.859 7.39 2.723 5.362 3.831 12.953 4.556 31.215.431 10.874 1.075 17.056 1.843 17.694.649.538 4.624 1.924 8.833 3.079l7.652 2.099 7.313-7.371c8.168-8.233 13.671-11.321 22.791-12.79 12.002-1.933 21.653 1.475 29.678 10.479l4.884 5.48 4.23-1.894 4.229-1.893-.118-7.299c-.069-4.229-.384-6.247-.75-4.799-.556 2.198-1.236 2.532-5.632 2.768-3.633.194-5.316-.164-6.155-1.311-.635-.868-2.626-1.765-4.425-1.992s-3.591-.933-3.984-1.568c-.392-.634-1.145-.886-1.673-.559-1.246.769-3.709-3.808-2.822-5.243.372-.602.221-1.095-.337-1.095-.557 0-1.313-1.596-1.679-3.547-.366-1.95-.904-3.307-1.197-3.015-.781.782-3.314-4.489-2.664-5.542.305-.493.211-1.451-.208-2.128-.864-1.398-1.314-3.712-1.707-8.768-.149-1.925-.667-4.625-1.151-6-.919-2.613-1.094-3.415-1.346-6.167-.083-.916-1.39-2.118-2.902-2.671-2.187-.799-2.341-1.026-.75-1.113 1.855-.102 1.872-.184.232-1.139-1.546-.9-1.687-2.007-1.123-8.772l.646-7.742-11.878-1.146c-13.869-1.339-21.09-3.296-25.334-6.867-1.938-1.631-2.829-1.99-2.443-.984.887 2.313-1.94 2.995-5.26 1.268C86.158 144.972 81 137.591 81 132.871c0-1.264 1.494-3.597 3.449-5.388l3.45-3.16.373 3.589c.206 1.973.341-6.333.301-18.458-.065-19.699-.27-22.347-1.925-24.87-1.018-1.554-2.765-3.063-3.882-3.355-1.865-.488-1.984-1.089-1.459-7.348.573-6.842 3.368-14.759 6.386-18.094 2.224-2.458 1.536-2.214-3.693 1.305m21.836 18.163c-4.642 3.911-6.018 8.067-6.018 18.177 0 11.162 1.188 15.925 5.178 20.754 6.189 7.494 18.771 10.81 41.004 10.807 7.709 0 10.113-.374 12.75-1.982 1.787-1.09 3.25-2.268 3.25-2.619 0-.35-.675-.077-1.5.608-1.105.917-1.851.954-2.834.138-2-1.66-1.389-4.29 1.776-7.638 7.287-7.707 8.276-17.632 2.374-23.813l-3.043-3.187 2.553 3.255c5.007 6.384 4.285 15.602-1.543 19.684-2.468 1.729-6.783 2.106-6.783.592 0-.532-.584-.744-1.298-.47-2.035.781-5.484-3.633-6.551-8.382-1.152-5.131-.133-9.453 3.075-13.043l2.274-2.545-2.5 1.539c-5.592 3.441-7.452 12.513-4.537 22.12.809 2.665 1.023 4.75.489 4.75-.524 0-.988 1.013-1.031 2.25s-.301 1.701-.574 1.029c-.389-.961-.775-.961-1.816 0-.726.672-1.106 1.577-.842 2.011.263.435-.684.498-2.105.142-2.116-.531-2.584-.296-2.584 1.299 0 1.821-.403 1.887-6.25 1.014-6.958-1.04-15.01-4.138-16.969-6.529-1.035-1.264-.772-1.234 1.369.159 1.728 1.124 2.778 1.34 3.018.62.203-.607 1.035-1.219 1.85-1.361 5.723-.991 13.173-6.17 15.585-10.834 1.827-3.533 1.784-11.15-.083-14.761-1.579-3.054-6.06-7.041-7.905-7.035-.613.002.326.882 2.086 1.956 5.942 3.622 8.004 11.645 4.754 18.494-2.1 4.425-8.423 7.482-11.455 5.538-1.333-.855-1.333-.97 0-1.04.825-.043.404-.516-.935-1.051s-3.005-.754-3.702-.487c-.698.268-2.415-.875-3.816-2.54-1.899-2.257-2.547-4.166-2.547-7.5 0-7.918 4.641-13.254 11.7-13.453 1.54-.043 2.213-.314 1.496-.601-2.712-1.087-8.455.919-12.127 4.237C108.973 87.45 106.498 89 105.57 89c-.929 0-1.41.45-1.07 1s.141 1-.441 1c-2.619 0-.271-12.081 3.032-15.597 2.834-3.017 2.234-3.088-1.255-.148M76.985 86.25c1.03 2.338 2.409 6.391 3.064 9.007 1.099 4.386 1.416 4.739 4.071 4.537 2.637-.201 2.88-.545 2.88-4.072 0-2.12-.478-4.747-1.062-5.839-1.71-3.194-7.081-7.883-9.03-7.883-1.715 0-1.712.19.077 4.25m107.667.799c-2.666.447-5.105 1.07-5.419 1.384-.936.937 12.184-.614 13.217-1.562 1.113-1.021-.933-.974-7.798.178m-9.287 3.134c-.459.725-.898 1.655-.975 2.067a31 31 0 0 1-.327 1.5c-.103.412-.133 5.172-.066 10.577.068 5.587-.333 10.373-.931 11.093-.578.697 1.083.214 3.692-1.072 5.166-2.547 15.436-4.792 18.39-4.02 1.018.267 1.852.077 1.852-.422 0-.498-2.137-.977-4.75-1.063l-4.75-.157 5-.686 5-.686-5-.307c-3.28-.201-4.054-.45-2.25-.723 3.149-.477 4.012-4.233 1-4.354-1.496-.06-1.46-.195.25-.93l2-.859-2-.189c-1.423-.134-1.134-.409 1-.952 2.944-.749 2.926-.768-1-1.024l-4-.26 4-.716 4-.716-4-.157c-2.2-.087-3.505-.488-2.9-.892s1.357-1.41 1.671-2.235c.455-1.195.587-1.144.65.25.13 2.88 2.073 1.976 2.149-1 .063-2.437.168-2.522.93-.75.739 1.719.869 1.753.93.243.061-1.524.828-1.69 5.786-1.256 6.125.536 11.856 2.091 14.284 3.876.882.648.753.225-.312-1.027-.996-1.171-3.783-2.626-6.192-3.233-6.332-1.594-22.282-1.375-28.087.386-5.707 1.732-6.452 1.824-4.438.55.809-.512 1.192-1.21.85-1.551-.341-.342-.996-.029-1.456.695M203.5 93c.34.55.816 1 1.059 1s.441-.45.441-1-.477-1-1.059-1-.781.45-.441 1m-2.342 3c0 1.375.227 1.938.504 1.25.278-.687.278-1.812 0-2.5-.277-.687-.504-.125-.504 1.25m-5 6c0 1.375.227 1.938.504 1.25.278-.687.278-1.812 0-2.5-.277-.687-.504-.125-.504 1.25m-83.158.378c0 .207.787.995 1.75 1.75 1.586 1.243 1.621 1.208.378-.378-1.307-1.666-2.128-2.195-2.128-1.372M194.158 104c0 1.375.227 1.938.504 1.25.278-.687.278-1.812 0-2.5-.277-.687-.504-.125-.504 1.25M190 104c0 .55.477 1 1.059 1s.781-.45.441-1-.816-1-1.059-1-.441.45-.441 1m8 6.094c0 .498.9.906 2 .906s2-.173 2-.383-.9-.619-2-.907c-1.1-.287-2-.115-2 .384m-14.5 4.929c-8.071 1.882-11.5 3.08-11.5 4.017 0 .528.45.96 1 .96s1 1.51 1 3.355c0 2.928-.414 3.474-3.25 4.286l-3.25.931-.306 13.464c-.175 7.688.158 15.051.775 17.164 1.133 3.876 4.472 6.848 9.531 8.486 2.84.918 3.027 1.313 3.5 7.392.445 5.719.746 6.457 2.75 6.742 2.047.29 2.25.859 2.25 6.309 0 3.738-.376 5.757-1 5.371-.55-.34-1.016-1.379-1.035-2.309-.02-.93-.699-2.816-1.509-4.191l-1.472-2.5.74 3c1.361 5.517.703 30.578-.985 37.494-.871 3.572-1.479 6.599-1.351 6.727.493.493 15.198-8.587 16.771-10.355.912-1.027 1.812-2.896 2-4.156s.609-2.159.937-2c.328.16 1.427-.385 2.442-1.21 1.641-1.333 1.761-1.333 1.08 0-.422.825-.054.621.817-.454 1.602-1.976 3.549-7.764 3.559-10.578.004-.914-1.002-1.615-2.494-1.739-1.375-.113-2.5.238-2.5.782s-.419.989-.93.989c-.574 0-.574-1.243 0-3.243.511-1.784.93-3.332.93-3.44s-1.687-.336-3.75-.507c-3.298-.273-3.79-.656-4.078-3.181-.589-5.149.636-7.49 5.031-9.613 2.295-1.109 4.763-2.016 5.485-2.016s1.312-.45 1.312-1-.338-.888-.75-.75c-.797.266-1.25-.572-1.25-2.309 0-.582.45-.781 1-.441.603.372 1-.962 1-3.358 0-2.252.542-4.188 1.25-4.465.688-.27-.213-.813-2-1.209-1.787-.395-3.25-1.057-3.25-1.471 0-1.058 2.581-3.083 3.174-2.489.27.269 2.571.878 5.113 1.353 4.084.763 4.861.61 6.668-1.313 2.648-2.819 2.587-4.085-.205-4.276-1.238-.084-4.224-.442-6.638-.794l-4.387-.642.51-15.401c.532-16.043-.005-18.505-3.722-17.078-1.194.458-1.513-.257-1.513-3.388V118h5.066c2.786 0 5.988.494 7.115 1.097 1.618.866 1.957.813 1.608-.25-.984-2.993-23.207-5.709-31.289-3.824m-47.5 5.879c0 1.038 1.902 2.541 2.466 1.948.183-.192-.297-.93-1.067-1.639-.769-.71-1.399-.849-1.399-.309m43.07 8.341c.511 1.784.93 6.359.93 10.167s.163 6.736.362 6.507.658-4.804 1.02-10.167c.623-9.226.553-9.75-1.292-9.75-1.724 0-1.842.376-1.02 3.243m-95.981 46.062c2.576 2.633 6.103 12.752 7.502 21.526.464 2.913.967 3.895 1.534 3 .542-.854.85-.916.86-.175.008.662.87.933 2.015.634 1.1-.288 2-.881 2-1.319s1.153-.668 2.563-.514c1.761.194 3.027-.427 4.048-1.987.818-1.247 2.809-2.815 4.425-3.485s2.693-1.615 2.392-2.101c-.3-.486-.05-.884.557-.884.606 0 1.03-.562.94-1.25-.323-2.49.094-3.856 1.006-3.293a1.106 1.106 0 0 0 1.516-.372c.322-.521.175-1.201-.327-1.511-.516-.319-.569-2.083-.121-4.069.435-1.928.5-3.558.146-3.623-.355-.065.705-.462 2.355-.882 1.753-.446-4.342-.813-14.668-.882-9.718-.065-18.493-.42-19.5-.788-1.37-.502-1.179-.004.757 1.975m103.981 11.886c.039 2.92.472 6.209.962 7.309.62 1.391.855-.067.771-4.789-.066-3.734-.499-7.023-.962-7.309s-.809 1.869-.771 4.789m11.694 17.559c-.194.412-.087 2.55.238 4.75l.592 4 .46-4.75c.404-4.17-.251-6.202-1.29-4"/></svg>